<svg width="466" height="555" viewBox="0 0 466 555" fill="none" xmlns="http://www.w3.org/2000/svg">
<g clip-path="url(#clip0_1730_248)">
<path d="M89.1163 217.426C88.578 216.599 85.1857 211.389 82.6723 211.916C77.9082 212.917 80.4926 233.655 73.5665 235.723C72.0464 236.177 69.9069 235.78 65.1284 237.035C63.2273 237.535 62.2418 237.945 61.9358 238.772C61.5015 239.945 62.8148 240.931 64.765 243.79C67.6896 248.078 66.7904 248.871 69.3623 251.944C71.2716 254.226 72.77 254.986 72.4763 255.988C72.0607 257.404 68.7919 256.795 68.0067 258.419C67.2056 260.077 69.5315 262.941 71.5432 264.692C75.3181 267.978 79.0803 268.295 82.5255 269.372C86.2696 270.542 91.39 273.158 96.6906 279.697L139.051 336.024C135.635 334.752 128.979 332.14 119.899 327.672C112.241 323.902 104.648 319.611 97.3316 314.914C94.1765 312.889 91.4193 311.004 88.9425 309.249L89.1938 309.378L87.9839 305.076C87.5196 303.367 87.2154 301.97 87.8594 300.847C88.2148 300.247 88.8853 299.627 89.6664 298.909C90.5622 298.087 91.5795 297.157 92.5703 295.865C93.4888 294.703 93.6978 293.667 93.239 292.799C93.0835 292.503 92.879 292.294 92.6634 292.139C92.9098 291.756 93.1902 291.304 93.4398 290.76C93.9684 289.605 94.0979 288.616 94.1914 287.88C94.5752 284.921 94.0874 283.177 92.7359 282.697C92.1647 282.494 91.6489 282.587 91.2172 282.786C91.1851 282.179 91.1028 281.465 90.8776 280.695C90.1527 278.224 89.1437 276.971 87.8009 276.868C85.9246 276.722 84.9782 278.758 83.8846 281.112C83.3943 282.158 82.1079 284.944 81.4362 284.946C81.353 284.945 81.116 284.895 80.906 284.85C80.3305 284.727 79.4627 284.542 78.108 284.504C77.3487 284.483 76.202 284.451 75.5006 285.375C74.8756 286.26 75.1839 287.202 75.4677 287.954C75.5618 288.203 75.6743 288.497 75.787 288.855C76.0444 289.671 76.0874 290.111 76.1296 290.537C76.1843 291.091 76.2412 291.667 76.6458 292.615C76.6799 292.692 76.7111 292.763 76.7431 292.834C76.3629 292.919 75.9644 293.1 75.6297 293.465C74.3698 294.812 75.5451 297.042 76.1047 297.93C77.1111 299.518 78.3862 300.281 79.4118 300.895C79.6705 301.05 79.9246 301.202 80.1702 301.366C81.4426 302.217 82.498 303.507 83.3435 305.167C82.3433 304.418 81.3869 303.697 80.4892 303.019C77.2738 300.588 74.2507 298.22 71.3035 295.911C68.273 293.537 65.3054 291.213 62.2864 288.946L62.4767 288.131L61.7474 288.547C56.9867 284.991 52.0835 281.574 46.5784 278.333C46.3528 278.201 46.0858 278.045 45.8107 277.887L45.5486 276.955C45.0844 275.245 44.7803 273.849 45.4242 272.726C45.7795 272.125 46.4501 271.505 47.2312 270.787C48.1269 269.966 49.1442 269.036 50.135 267.744C51.0535 266.582 51.2626 265.546 50.8037 264.677C50.6482 264.382 50.4438 264.172 50.2282 264.018C50.4745 263.635 50.7551 263.182 51.0045 262.639C51.5332 261.483 51.6627 260.495 51.7561 259.759C52.14 256.799 51.6521 255.056 50.3007 254.575C49.7295 254.373 49.2137 254.465 48.782 254.665C48.75 254.058 48.6677 253.343 48.4424 252.574C47.7174 250.102 46.7085 248.849 45.3658 248.746C43.4895 248.6 42.543 250.637 41.4493 252.991C40.959 254.037 39.6726 256.822 39.0009 256.825C38.9177 256.824 38.6808 256.774 38.4708 256.728C37.8953 256.605 37.0275 256.42 35.6729 256.383C34.9135 256.362 33.7668 256.329 33.0653 257.253C32.4404 258.139 32.7487 259.08 33.0326 259.833C33.1267 260.081 33.239 260.376 33.3518 260.734C33.6091 261.549 33.6521 261.989 33.6945 262.416C33.7491 262.97 33.8059 263.546 34.2105 264.493C34.2448 264.57 34.276 264.642 34.3078 264.713C33.9277 264.798 33.5292 264.978 33.1944 265.344C31.9346 266.691 33.1098 268.921 33.6695 269.808C34.6759 271.397 35.951 272.159 36.9766 272.773C37.2353 272.928 37.4895 273.08 37.735 273.245C38.4542 273.726 39.1012 274.353 39.6866 275.096C37.8192 274.477 35.663 273.967 33.2317 273.749C30.326 273.488 27.3821 273.68 24.4477 274.308C24.4271 274.091 24.4069 273.878 24.3843 273.641C24.1349 270.99 23.9524 269.89 23.0222 268.859C22.5706 268.355 21.8789 267.802 19.9013 267.169C17.1603 266.292 14.8125 266.16 14.1564 266.139C10.8796 266.048 8.04931 265.969 5.4797 267.911C4.9894 268.278 3.50041 269.393 2.68309 271.359C2.26472 272.354 2.18928 273.161 2.12873 273.81C2.06484 274.488 2.0246 274.937 1.63676 275.566C1.39197 275.966 1.09746 276.293 0.863415 276.555C0.411427 277.082 -0.438145 278.046 0.273879 279.092C0.444986 279.345 0.661243 279.523 0.907033 279.643C0.776604 280.531 0.856136 281.449 1.30369 282.28C1.70469 283.028 2.39586 283.529 4.25797 284.422C7.10723 285.791 9.40352 286.457 9.85956 286.583C12.815 287.406 14.297 287.819 15.8856 287.759C19.2662 287.627 21.7221 286.597 23.1845 284.697C23.2583 284.604 23.3265 284.509 23.3918 284.414C24.4169 282.922 24.5279 281.36 24.705 278.872C24.7385 278.392 24.7285 277.839 24.6857 277.133C27.4577 276.5 30.2355 276.284 32.9697 276.53C38.8884 277.063 43.0941 279.539 45.114 280.729C50.1445 283.691 54.68 286.818 59.078 290.069L58.5479 290.372C56.9823 291.247 55.6848 291.89 54.4154 291.563C53.7341 291.377 52.9533 290.898 52.0481 290.337C51.012 289.695 49.8382 288.964 48.315 288.35C46.938 287.772 45.8646 287.836 45.1258 288.492C44.8743 288.715 44.7198 288.963 44.6225 289.207C44.1828 289.07 43.6661 288.918 43.0673 288.819C41.7957 288.609 40.7894 288.737 40.0408 288.835C37.0297 289.221 35.437 290.127 35.3062 291.533C35.2517 292.127 35.4736 292.594 35.7795 292.953C35.1898 293.138 34.5073 293.397 33.8066 293.806C31.557 295.122 30.5794 296.399 30.8182 297.701C31.1506 299.521 33.3961 299.903 35.9913 300.346C37.1453 300.546 40.2145 301.062 40.3872 301.7C40.4075 301.779 40.4183 302.017 40.4269 302.228C40.4517 302.806 40.4896 303.678 40.7966 304.974C40.9684 305.701 41.2271 306.799 42.3148 307.231C43.3454 307.6 44.1942 307.069 44.8632 306.608C45.0839 306.456 45.3457 306.274 45.6694 306.076C46.4071 305.625 46.8293 305.472 47.2383 305.324C47.7705 305.131 48.323 304.931 49.1535 304.307C49.2206 304.255 49.2833 304.207 49.3446 304.158C49.5251 304.498 49.8036 304.831 50.2484 305.056C51.8943 305.912 53.7921 304.23 54.5241 303.473C55.8328 302.113 56.2604 300.708 56.6047 299.578C56.6917 299.293 56.7769 299.013 56.8765 298.738C57.5023 297.008 58.8086 295.408 60.7609 293.981L61.1829 293.672L61.5863 291.945C64.2363 293.952 66.8602 296.002 69.532 298.096C72.4893 300.414 75.5262 302.792 78.7546 305.232C83.0353 308.467 88.3609 312.493 95.778 317.254C103.184 322.007 110.87 326.352 118.626 330.169C125.535 333.569 131.067 335.912 134.864 337.415C123.801 338.142 108.499 339.005 101.584 339.127C98.8945 339.174 96.1237 339.134 94.1487 337.306C92.2472 335.546 91.3125 332.343 88.546 328.997C88.2229 328.607 87.3094 327.531 86.5009 327.721C85.8324 327.878 85.8446 328.758 85.2227 328.914C84.3884 329.123 83.6896 327.71 81.9632 326.381C80.746 325.444 79.6366 325.025 78.6825 324.665C78.3949 324.557 74.0843 322.959 73.2928 324.121C72.6981 324.994 74.6045 326.669 74.0384 327.407C73.4744 328.142 71.3855 326.736 68.2332 326.852C67.6647 326.873 64.0825 327.005 63.621 328.369C62.7463 330.955 73.8529 335.692 72.8878 339.629C72.676 340.492 71.8603 341.409 71.1088 344.076C70.8099 345.136 70.7308 345.73 71.0555 346.116C71.5163 346.664 72.3879 346.315 74.3788 346.2C77.3648 346.027 77.5017 346.689 79.7793 346.336C81.4701 346.074 82.2825 345.571 82.6979 346.001C83.2857 346.61 82.0383 348.011 82.6232 348.858C83.2201 349.722 85.3221 349.427 86.7774 348.963C89.5083 348.09 90.7522 346.368 92.2844 345.018C93.9495 343.55 96.7337 341.836 101.53 341.167L135.483 337.658C137.468 338.435 138.93 338.967 139.782 339.276C140.236 339.44 140.527 339.542 140.648 339.596L141.097 338.746L141.601 339.416C141.445 339.198 141.274 338.957 141.109 338.725L141.3 338.363L142.6 337.796C142.426 337.406 142.234 337.235 141.715 337.014L144.325 336.744C143.536 336.807 142.586 336.878 141.57 336.953C141.357 336.867 141.094 336.772 140.766 336.653C140.384 336.515 139.865 336.326 139.245 336.096C128.947 321.511 107.767 290.608 99.8832 277.96C97.4162 274.003 95.0126 269.845 96.0716 265.28C97.0912 260.886 101.197 256.643 103.891 249.551C104.205 248.723 105.051 246.406 104.038 245.372C103.201 244.518 101.856 245.319 101.062 244.533C99.9965 243.478 101.552 241.181 102.064 237.43C102.424 234.786 102.082 232.763 101.788 231.023C101.7 230.498 100.326 222.664 97.8296 222.521C95.9545 222.414 95.0705 226.74 93.4288 226.555C91.793 226.371 92.1014 222.012 89.1163 217.426Z" fill="#D1ECFF"/>
<path d="M436.12 399.559L132.898 358.388C122.749 357.012 114.373 349.868 111.558 340.191L41.9154 100.742C39.5556 92.6267 41.3173 84.2231 46.749 77.6844C52.1806 71.1457 60.2056 67.7665 68.7748 68.409L374.271 91.4015C385.324 92.2331 394.601 99.8787 397.36 110.425L464.727 368.052C466.876 376.273 464.727 384.963 458.975 391.297C454.023 396.753 447 399.8 439.679 399.8C438.499 399.8 437.309 399.72 436.12 399.559Z" fill="white"/>
<path d="M359.442 345.991L263.267 332.932C260.049 332.496 257.392 330.23 256.499 327.16L234.41 251.213C233.662 248.639 234.22 245.974 235.943 243.9C237.666 241.826 240.211 240.754 242.929 240.958L339.826 248.25C343.331 248.514 346.274 250.939 347.149 254.284L368.516 335.997C369.198 338.605 368.516 341.361 366.692 343.37C365.121 345.101 362.893 346.067 360.571 346.067C360.197 346.067 359.82 346.042 359.442 345.991Z" fill="#D1ECFF"/>
<path d="M350.838 135.283L172.304 119.139C167.803 118.732 164.3 116.699 164.496 114.609C164.692 112.519 168.514 111.149 173.015 111.556L351.549 127.7C356.05 128.107 359.551 130.139 359.355 132.229C359.159 134.32 355.339 135.69 350.838 135.283Z" fill="#D1ECFF"/>
<path d="M360.573 181.38L182.039 165.236C177.538 164.829 174.035 162.797 174.231 160.706C174.427 158.616 178.249 157.247 182.75 157.654L361.284 173.798C365.785 174.205 369.286 176.236 369.09 178.326C368.894 180.417 365.074 181.787 360.573 181.38Z" fill="#D1ECFF"/>
<path d="M364.012 221.558L185.478 205.414C180.977 205.007 177.474 202.975 177.67 200.884C177.866 198.794 181.687 197.425 186.188 197.832L364.722 213.976C369.223 214.383 372.725 216.414 372.529 218.505C372.333 220.595 368.513 221.965 364.012 221.558Z" fill="#D1ECFF"/>
<path d="M256.047 202.044C260.528 197.248 266.68 195.632 269.786 198.434C272.893 201.236 271.778 207.394 267.295 212.192C265.53 214.132 263.319 215.629 260.845 216.558L241.597 236.644L232.194 227.57L252.168 208.732C252.899 206.23 254.229 203.937 256.047 202.044Z" fill="#FFB6B6"/>
<path d="M146.309 206.515C146.309 206.515 157.557 196.408 171.017 205.232C184.477 214.056 215.821 236.626 215.821 236.626L237.783 209.867L255.09 225.277C255.09 225.277 224.562 278.1 204.839 266.475C185.116 254.849 141.085 221.662 143.084 214.795C145.083 207.928 146.309 206.515 146.309 206.515Z" fill="#EA2328"/>
<path d="M229.984 453.149L212.063 485.953L197.303 468.406L214.282 445.868L229.984 453.149Z" fill="#FFB6B6"/>
<path d="M218.394 481.419L210.812 521.666C210.812 521.666 205.723 535.624 197.542 521.446C189.361 507.268 174.549 477.935 183.064 472.559C191.58 467.183 201.865 462.839 201.865 462.839L218.394 481.419Z" fill="#2F2E41"/>
<path d="M240.559 488.874L259.466 522.306L235.832 525.092L225.433 498.161L240.559 488.874Z" fill="#FFB6B6"/>
<path d="M140.352 186.127C140.352 186.127 138.461 204.7 135.625 206.558C132.789 208.415 168.727 206.558 168.727 206.558L158.314 186.127H140.352Z" fill="#FFB6B6"/>
<path d="M178.716 212.038L165.488 201.808H133.145L111.603 219.453L125.311 282.138L118.693 312.784L202.829 315.57L187.703 287.71C187.703 287.71 205.665 269.137 199.993 257.064C194.321 244.991 178.716 212.038 178.716 212.038Z" fill="#EA2328"/>
<path d="M194.709 308.248L206.999 314.748C206.999 314.748 273.173 376.041 267.501 394.614C261.829 413.187 224.015 466.122 224.015 466.122L206.053 456.835L232.523 400.186L181.947 350.502L209.096 397.516L247.648 496.768L224.96 506.054L166.349 389.971C166.349 389.971 118.136 357.467 115.3 337.036C112.464 316.606 119.082 312.891 119.082 312.891L194.709 308.248Z" fill="#2F2E41"/>
<path d="M258.993 514.413L290.189 543.202C290.189 543.202 299.643 555.275 282.627 554.346C265.61 553.417 231.578 549.703 231.578 539.487C231.578 529.272 233.469 518.128 233.469 518.128L258.993 514.413Z" fill="#2F2E41"/>
<path d="M149.806 190.771C161.814 190.771 171.549 181.208 171.549 169.411C171.549 157.615 161.814 148.052 149.806 148.052C137.798 148.052 128.063 157.615 128.063 169.411C128.063 181.208 137.798 190.771 149.806 190.771Z" fill="#FFB6B6"/>
<path d="M244.129 254.638L226.209 308.247C225.732 309.676 224.491 310.73 222.983 310.988L188.714 316.842C185.641 317.367 183.102 314.494 184.062 311.579L201.957 257.242C202.44 255.775 203.725 254.702 205.276 254.47L239.568 249.344C242.622 248.888 245.092 251.755 244.129 254.638Z" fill="white"/>
<path d="M187.987 317.832C186.528 317.832 185.143 317.22 184.161 316.109C182.982 314.775 182.608 312.974 183.162 311.293L201.057 256.955C201.655 255.142 203.217 253.838 205.134 253.552L239.426 248.426C241.185 248.162 242.925 248.803 244.077 250.139C245.227 251.475 245.582 253.265 245.027 254.927L227.108 308.536C226.52 310.295 225.002 311.584 223.145 311.903L188.876 317.757C188.578 317.807 188.281 317.832 187.987 317.832ZM240.2 250.225C240.038 250.225 239.874 250.237 239.71 250.261L205.418 255.388C204.213 255.567 203.232 256.387 202.857 257.526L185.008 311.723C184.68 312.718 184.787 313.835 185.416 314.678C186.152 315.664 187.348 316.128 188.552 315.926L202.303 313.577C216.095 311.221 227.441 301.586 231.808 288.521L243.196 254.449C243.483 253.591 243.448 252.635 242.995 251.849C242.399 250.815 241.336 250.225 240.2 250.225Z" fill="#3F3D56"/>
<path d="M191.817 296.402C198.44 296.643 203.681 300.195 203.525 304.335C203.368 308.475 197.873 311.635 191.248 311.393C188.6 311.332 186.006 310.649 183.682 309.402L155.635 308.033L156.569 295.117L184.119 297.838C186.532 296.762 189.171 296.27 191.817 296.402Z" fill="#FFB6B6"/>
<path d="M116.803 217.131C116.803 217.131 131.928 218.988 133.819 234.776C135.71 250.563 138.546 288.638 138.546 288.638L173.523 287.71L172.805 310.645C172.805 310.645 112.076 322.071 108.295 299.783C104.513 277.494 101.677 223.047 108.295 220.089C114.912 217.131 116.803 217.131 116.803 217.131Z" fill="#EA2328"/>
<path d="M313.606 68.1784L305.826 64.5579C309.017 68.9327 311.766 75.7651 313.238 81.202C315.731 76.1375 319.749 69.9408 323.726 66.2393L315.503 68.3174C320.57 43.9231 339.628 26.4104 361.451 26.4104L361.76 25.5293C338.965 25.5293 318.779 42.7992 313.606 68.1784Z" fill="#3F3D56"/>
<path d="M349.414 105.347H300.256C298.171 105.347 296.475 103.681 296.475 101.633C296.475 99.5844 298.171 97.918 300.256 97.918H349.414C351.499 97.918 353.196 99.5844 353.196 101.633C353.196 103.681 351.499 105.347 349.414 105.347Z" fill="#338CCA"/>
<path d="M234.83 272.213L202.594 274.881C201.781 274.949 201.064 274.354 200.996 273.555C200.927 272.757 201.533 272.053 202.346 271.986L234.582 269.317C235.394 269.25 236.111 269.845 236.179 270.643C236.248 271.441 235.643 272.146 234.83 272.213Z" fill="#3F3D56"/>
<path d="M231.994 281.498L199.758 284.167C198.945 284.234 198.228 283.639 198.16 282.841C198.091 282.043 198.697 281.339 199.51 281.271L231.746 278.603C232.558 278.536 233.275 279.13 233.343 279.929C233.412 280.727 232.807 281.431 231.994 281.498Z" fill="#3F3D56"/>
<path d="M143.987 177.091L159.198 159.934L156.663 152.697L164.828 160.32L169.043 159.195C169.043 159.195 169.007 144.502 157.064 143.838C145.121 143.175 136.554 144.411 136.554 144.411C136.554 144.411 119.478 149.667 118.81 153.696C118.142 157.725 108.576 163.078 108.576 163.078C108.576 163.078 100.276 169.144 104.156 179.31C108.036 189.477 116.89 202.166 110.761 208.353C104.632 214.539 95.9713 219.3 100.191 221.675C104.411 224.049 112.023 212.917 118.955 217.368C125.888 221.819 137.602 239.697 148.59 230.464C159.578 221.23 161.609 210.537 161.609 210.537L144.074 193.512C144.074 193.512 133.45 175.711 143.987 177.091Z" fill="#2F2E41"/>
<path d="M385.723 4.29225H337.939C336.735 4.29225 335.754 3.32932 335.754 2.1459C335.754 0.962474 336.735 0 337.939 0H385.723C386.928 0 387.908 0.962483 387.908 2.14591C387.908 3.32933 386.928 4.29225 385.723 4.29225Z" fill="#3F3D56"/>
<path d="M411.365 27.1902H312.299C311.094 27.1902 310.114 26.2273 310.114 25.0438C310.114 23.8604 311.094 22.8979 312.299 22.8979H411.365C412.57 22.8979 413.55 23.8604 413.55 25.0439C413.55 26.2273 412.57 27.1902 411.365 27.1902Z" fill="#3F3D56"/>
</g>
<defs>
<clipPath id="clip0_1730_248">
<rect width="465.544" height="554.395" fill="white"/>
</clipPath>
</defs>
</svg>
